<svg width="24" height="25" viewBox="0 0 24 25" fill="none" xmlns="http://www.w3.org/2000/svg">
<path d="M11.9999 3.02637C6.6983 3.02637 2.3999 7.32477 2.3999 12.6264C2.3999 17.1248 5.4975 20.8888 9.6735 21.9304C9.6287 21.8008 9.5999 21.6504 9.5999 21.464V19.8232C9.2103 19.8232 8.5575 19.8232 8.3935 19.8232C7.7367 19.8232 7.1527 19.5408 6.8695 19.016C6.5551 18.4328 6.5007 17.5408 5.7215 16.9952C5.4903 16.8136 5.6663 16.6064 5.9327 16.6344C6.4247 16.7736 6.8327 17.1112 7.2167 17.612C7.5991 18.1136 7.7791 18.2272 8.4935 18.2272C8.8399 18.2272 9.3583 18.2072 9.8463 18.1304C10.1087 17.464 10.5623 16.8504 11.1167 16.5608C7.9199 16.232 6.3943 14.6416 6.3943 12.4824C6.3943 11.5528 6.7903 10.6536 7.4631 9.89597C7.2423 9.14397 6.9647 7.61037 7.5479 7.02637C8.9863 7.02637 9.8559 7.95917 10.0647 8.21117C10.7815 7.96557 11.5687 7.82637 12.3959 7.82637C13.2247 7.82637 14.0151 7.96557 14.7335 8.21277C14.9399 7.96237 15.8103 7.02637 17.2519 7.02637C17.8375 7.61117 17.5567 9.15117 17.3335 9.90157C18.0023 10.6576 18.3959 11.5544 18.3959 12.4824C18.3959 14.64 16.8727 16.2296 13.6807 16.56C14.5591 17.0184 15.1999 18.3064 15.1999 19.2768V21.464C15.1999 21.5472 15.1815 21.6072 15.1719 21.6784C18.9127 20.3672 21.5999 16.8152 21.5999 12.6264C21.5999 7.32477 17.3015 3.02637 11.9999 3.02637Z" fill="white"/>
</svg>
