<svg width="37" height="28" viewBox="0 0 37 28" fill="none" xmlns="http://www.w3.org/2000/svg">
<path d="M29.0745 0H36.4655V27.474H29.0745V0Z" fill="url(#paint0_linear_13_72)"/>
<path d="M23.712 16.112C23.712 18.4427 23.3383 20.4883 22.591 22.249C21.8437 24.0097 20.6023 25.384 18.867 26.372C17.1443 27.36 14.8073 27.854 11.856 27.854C8.90467 27.854 6.56133 27.36 4.826 26.372C3.10333 25.384 1.86833 24.0097 1.121 22.249C0.373667 20.4883 0 18.4427 0 16.112V0H7.486V16.416C7.486 18.316 7.923 19.665 8.797 20.463C9.68367 21.261 10.7033 21.66 11.856 21.66C12.616 21.66 13.3253 21.489 13.984 21.147C14.6553 20.7923 15.1937 20.235 15.599 19.475C16.017 18.7023 16.226 17.6827 16.226 16.416V0H23.712V16.112Z" fill="url(#paint1_linear_13_72)"/>
<defs>
<linearGradient id="paint0_linear_13_72" x1="36.4603" y1="-30.8911" x2="19.3069" y2="-27.8633" gradientUnits="userSpaceOnUse">
<stop offset="0.324304" stop-color="#FF9255"/>
<stop offset="1" stop-color="#FF0000" stop-opacity="0.74"/>
</linearGradient>
<linearGradient id="paint1_linear_13_72" x1="23.6955" y1="-31.3183" x2="-19.557" y2="-7.1593" gradientUnits="userSpaceOnUse">
<stop offset="0.324304" stop-color="#FF9255"/>
<stop offset="1" stop-color="#FF0000" stop-opacity="0.74"/>
</linearGradient>
</defs>
</svg>
