<svg width="24" height="25" viewBox="0 0 24 25" fill="none" xmlns="http://www.w3.org/2000/svg">
<path d="M16 8.62646C17.5913 8.62646 19.1174 9.25861 20.2426 10.3838C21.3679 11.5091 22 13.0352 22 14.6265V21.6265H18V14.6265C18 14.0961 17.7893 13.5874 17.4142 13.2123C17.0391 12.8372 16.5304 12.6265 16 12.6265C15.4696 12.6265 14.9609 12.8372 14.5858 13.2123C14.2107 13.5874 14 14.0961 14 14.6265V21.6265H10V14.6265C10 13.0352 10.6321 11.5091 11.7574 10.3838C12.8826 9.25861 14.4087 8.62646 16 8.62646Z" stroke="white" stroke-width="2" stroke-linecap="round" stroke-linejoin="round"/>
<path d="M6 9.62646H2V21.6265H6V9.62646Z" stroke="white" stroke-width="2" stroke-linecap="round" stroke-linejoin="round"/>
<path d="M4 6.62646C5.10457 6.62646 6 5.73103 6 4.62646C6 3.52189 5.10457 2.62646 4 2.62646C2.89543 2.62646 2 3.52189 2 4.62646C2 5.73103 2.89543 6.62646 4 6.62646Z" stroke="white" stroke-width="2" stroke-linecap="round" stroke-linejoin="round"/>
</svg>
