<svg width="24" height="25" viewBox="0 0 24 25" fill="none" xmlns="http://www.w3.org/2000/svg">
<g clip-path="url(#clip0_17_188)">
<path d="M9.16895 7.83724C8.93903 7.29148 8.70527 7.3654 8.53103 7.35676C8.36591 7.34908 8.17727 7.34668 7.98815 7.34668C7.79903 7.34668 7.49231 7.41676 7.23215 7.69708C6.97199 7.9774 6.23999 8.6542 6.23999 10.0318C6.23999 11.4094 7.25567 12.7395 7.39727 12.9267C7.53935 13.1134 9.39599 15.9401 12.239 17.1526C12.9154 17.4406 13.4434 17.6129 13.8547 17.742C14.5334 17.9552 15.1517 17.9249 15.6403 17.8529C16.1846 17.7728 17.3174 17.1756 17.5536 16.5224C17.7898 15.8686 17.7898 15.3084 17.7187 15.1918C17.6477 15.0752 17.4586 15.0051 17.1754 14.8649C16.8922 14.7248 15.4982 14.0475 15.2381 13.9548C14.9779 13.8612 14.7893 13.8147 14.6002 14.095C14.411 14.3753 13.8682 15.0051 13.703 15.1923C13.5379 15.379 13.3723 15.4025 13.0891 15.2624C12.8059 15.1222 11.892 14.827 10.8101 13.8732C9.96719 13.1312 9.39839 12.2148 9.23327 11.9345C9.06815 11.6542 9.21551 11.503 9.35759 11.3633C9.48527 11.2376 9.64079 11.0364 9.78287 10.8728C9.92495 10.7091 9.97199 10.5924 10.0661 10.4057C10.1602 10.219 10.1131 10.0553 10.0421 9.91516C9.97199 9.775 9.40511 8.39788 9.16895 7.83724Z" stroke="white" stroke-miterlimit="10"/>
<path d="M11.9999 2.06641C6.16794 2.06641 1.43994 6.79441 1.43994 12.6264C1.43994 14.581 1.97322 16.4107 2.89914 17.9808L1.43994 23.1864L6.85146 21.8458C8.37498 22.6982 10.1299 23.1864 11.9999 23.1864C17.8319 23.1864 22.5599 18.4584 22.5599 12.6264C22.5599 6.79441 17.8319 2.06641 11.9999 2.06641Z" stroke="white" stroke-width="2" stroke-miterlimit="10" stroke-linejoin="round"/>
</g>
<defs>
<clipPath id="clip0_17_188">
<rect width="24" height="24" fill="white" transform="translate(0 0.626465)"/>
</clipPath>
</defs>
</svg>
